<?xml version="1.0" encoding="utf-8"?>
<!-- Generator: Adobe Illustrator 26.5.0, SVG Export Plug-In . SVG Version: 6.00 Build 0)  -->
<svg version="1.1" id="Capa_1" xmlns="http://www.w3.org/2000/svg" xmlns:xlink="http://www.w3.org/1999/xlink" x="0px" y="0px"
	 viewBox="0 0 412.1 412.1" style="enable-background:new 0 0 412.1 412.1;" xml:space="preserve">
<path d="M225.6,206L408,23.7c5.4-5.4,5.4-14.2,0-19.6l0,0c-5.4-5.4-14.2-5.4-19.6,0L206,186.4L23.7,4.1c-5.4-5.4-14.2-5.4-19.6,0
	l0,0c-5.4,5.4-5.4,14.2,0,19.6L186.4,206L4.1,388.4c-5.4,5.4-5.4,14.2,0,19.6l0,0c5.4,5.4,14.2,5.4,19.6,0L206,225.6L388.4,408
	c5.4,5.4,14.2,5.4,19.6,0v0c5.4-5.4,5.4-14.2,0-19.6L225.6,206z"/>
</svg>
