<?xml version="1.0" encoding="UTF-8"?>
<svg id="Capa_1" data-name="Capa 1" xmlns="http://www.w3.org/2000/svg" viewBox="0 0 412.07 412.07">
  <defs>
    <style>
      .cls-1 {
        fill: none;
        stroke: #fcfcfc;
        stroke-miterlimit: 10;
        stroke-width: 16px;
      }

      .cls-2 {
        fill: #fcfcfc;
      }
    </style>
  </defs>
  <path class="cls-2" d="M206.03,412.07c-55.03,0-106.77-21.43-145.69-60.35C21.43,312.81,0,261.07,0,206.03S21.43,99.26,60.35,60.35C99.26,21.43,151,0,206.03,0s106.77,21.43,145.69,60.35c38.91,38.91,60.35,90.65,60.35,145.69s-21.43,106.77-60.35,145.69-90.65,60.35-145.69,60.35Zm0-396.67C100.92,15.4,15.4,100.92,15.4,206.03s85.52,190.63,190.63,190.63,190.63-85.52,190.63-190.63S311.15,15.4,206.03,15.4Z"/>
  <polygon class="cls-1" points="162.53 206.04 162.53 131.03 221.03 168.54 279.53 206.04 221.03 243.54 162.53 281.03 162.53 206.04"/>
</svg>